<mxfile host="app.diagrams.net" modified="2023-04-14T08:10:36.546Z" agent="Mozilla/5.0 (Macintosh; Intel Mac OS X 10_15_7) AppleWebKit/537.36 (KHTML, like Gecko) Chrome/109.0.0.0 Safari/537.36" etag="H3EjO_vLq-lkF944qbK7" version="21.1.7" type="device">
  <diagram id="C5RBs43oDa-KdzZeNtuy" name="Page-1">
    <mxGraphModel dx="2320" dy="739" grid="1" gridSize="10" guides="1" tooltips="1" connect="1" arrows="1" fold="1" page="1" pageScale="1" pageWidth="827" pageHeight="1169" math="0" shadow="0">
      <root>
        <mxCell id="WIyWlLk6GJQsqaUBKTNV-0" />
        <mxCell id="WIyWlLk6GJQsqaUBKTNV-1" parent="WIyWlLk6GJQsqaUBKTNV-0" />
        <mxCell id="-BQ047IAaA30-ouGBMNb-2" value="" style="shape=folder;fontStyle=1;spacingTop=10;tabWidth=50;tabHeight=20;tabPosition=left;html=1;whiteSpace=wrap;" parent="WIyWlLk6GJQsqaUBKTNV-1" vertex="1">
          <mxGeometry x="30" y="26" width="1220" height="170" as="geometry" />
        </mxCell>
        <mxCell id="-BQ047IAaA30-ouGBMNb-3" value="&lt;div&gt;engine&lt;/div&gt;" style="text;html=1;strokeColor=none;fillColor=none;align=center;verticalAlign=middle;whiteSpace=wrap;rounded=0;" parent="WIyWlLk6GJQsqaUBKTNV-1" vertex="1">
          <mxGeometry x="25.17" y="20" width="60" height="30.222222222222218" as="geometry" />
        </mxCell>
        <mxCell id="-BQ047IAaA30-ouGBMNb-7" value="" style="group" parent="WIyWlLk6GJQsqaUBKTNV-1" vertex="1" connectable="0">
          <mxGeometry x="70" y="59.99555555555554" width="180" height="115.85185185185179" as="geometry" />
        </mxCell>
        <mxCell id="-BQ047IAaA30-ouGBMNb-4" value="" style="shape=folder;fontStyle=1;spacingTop=10;tabWidth=65;tabHeight=20;tabPosition=left;html=1;whiteSpace=wrap;movable=1;resizable=1;rotatable=1;deletable=1;editable=1;locked=0;connectable=1;" parent="-BQ047IAaA30-ouGBMNb-7" vertex="1">
          <mxGeometry y="5.03703703703701" width="180" height="110.81481481481481" as="geometry" />
        </mxCell>
        <mxCell id="-BQ047IAaA30-ouGBMNb-5" value="positions" style="text;html=1;strokeColor=none;fillColor=none;align=center;verticalAlign=middle;whiteSpace=wrap;rounded=0;movable=1;resizable=1;rotatable=1;deletable=1;editable=1;locked=0;connectable=1;" parent="-BQ047IAaA30-ouGBMNb-7" vertex="1">
          <mxGeometry x="4" width="60" height="30.222222222222218" as="geometry" />
        </mxCell>
        <mxCell id="-BQ047IAaA30-ouGBMNb-6" value="&lt;p style=&quot;margin:0px;margin-top:4px;text-align:center;&quot;&gt;&lt;b&gt;&amp;lt;&amp;lt;abstract&amp;gt;&amp;gt;&lt;/b&gt;&lt;/p&gt;&lt;p style=&quot;margin:0px;margin-top:4px;text-align:center;&quot;&gt;&lt;b&gt;Ground&lt;br&gt;&lt;/b&gt;&lt;/p&gt;&lt;hr size=&quot;1&quot;&gt;" style="verticalAlign=top;align=left;overflow=fill;fontSize=12;fontFamily=Helvetica;html=1;whiteSpace=wrap;movable=1;resizable=1;rotatable=1;deletable=1;editable=1;locked=0;connectable=1;" parent="-BQ047IAaA30-ouGBMNb-7" vertex="1">
          <mxGeometry x="20" y="43.318518518518545" width="140" height="60.444444444444436" as="geometry" />
        </mxCell>
        <mxCell id="WeC_Fzpdg34F6DS3K2GO-0" value="" style="group" vertex="1" connectable="0" parent="WIyWlLk6GJQsqaUBKTNV-1">
          <mxGeometry x="12" y="189.99652173913043" width="1240" height="810" as="geometry" />
        </mxCell>
        <mxCell id="-BQ047IAaA30-ouGBMNb-10" value="" style="shape=folder;fontStyle=1;spacingTop=10;tabWidth=40;tabHeight=14;tabPosition=left;html=1;whiteSpace=wrap;movable=1;resizable=1;rotatable=1;deletable=1;editable=1;locked=0;connectable=1;" parent="WeC_Fzpdg34F6DS3K2GO-0" vertex="1">
          <mxGeometry x="-82" y="25.84" width="1300" height="714.16" as="geometry" />
        </mxCell>
        <mxCell id="WeC_Fzpdg34F6DS3K2GO-1" value="&lt;p style=&quot;margin:0px;margin-top:4px;text-align:center;&quot;&gt;&lt;b&gt;&amp;lt;&amp;lt;abstract&amp;gt;&amp;gt;&lt;/b&gt;&lt;/p&gt;&lt;p style=&quot;margin:0px;margin-top:4px;text-align:center;&quot;&gt;&lt;b&gt;MapSides&lt;/b&gt;&lt;/p&gt;&lt;hr size=&quot;1&quot;&gt;&lt;div&gt;-- base class for grounds which splits the map into left and right sides&lt;br&gt;&lt;/div&gt;" style="verticalAlign=top;align=left;overflow=fill;fontSize=12;fontFamily=Helvetica;html=1;whiteSpace=wrap;" vertex="1" parent="WeC_Fzpdg34F6DS3K2GO-0">
          <mxGeometry x="388" y="80" width="160" height="100" as="geometry" />
        </mxCell>
        <mxCell id="WeC_Fzpdg34F6DS3K2GO-9" style="edgeStyle=orthogonalEdgeStyle;rounded=0;orthogonalLoop=1;jettySize=auto;html=1;entryX=0.5;entryY=1;entryDx=0;entryDy=0;endArrow=block;endFill=0;" edge="1" parent="WeC_Fzpdg34F6DS3K2GO-0" source="WeC_Fzpdg34F6DS3K2GO-7" target="WeC_Fzpdg34F6DS3K2GO-1">
          <mxGeometry relative="1" as="geometry" />
        </mxCell>
        <mxCell id="WeC_Fzpdg34F6DS3K2GO-7" value="&lt;p style=&quot;margin:0px;margin-top:4px;text-align:center;&quot;&gt;&lt;b style=&quot;background-color: initial;&quot;&gt;EastSide&lt;/b&gt;&lt;br&gt;&lt;/p&gt;&lt;hr size=&quot;1&quot;&gt;&lt;div&gt;-- East side of the map&lt;br&gt;&lt;/div&gt;" style="verticalAlign=top;align=left;overflow=fill;fontSize=12;fontFamily=Helvetica;html=1;whiteSpace=wrap;" vertex="1" parent="WeC_Fzpdg34F6DS3K2GO-0">
          <mxGeometry x="288" y="230" width="160" height="80" as="geometry" />
        </mxCell>
        <mxCell id="WeC_Fzpdg34F6DS3K2GO-12" style="edgeStyle=orthogonalEdgeStyle;rounded=0;orthogonalLoop=1;jettySize=auto;html=1;endArrow=block;endFill=0;" edge="1" parent="WeC_Fzpdg34F6DS3K2GO-0" source="WeC_Fzpdg34F6DS3K2GO-8" target="WeC_Fzpdg34F6DS3K2GO-1">
          <mxGeometry relative="1" as="geometry" />
        </mxCell>
        <mxCell id="WeC_Fzpdg34F6DS3K2GO-8" value="&lt;p style=&quot;margin:0px;margin-top:4px;text-align:center;&quot;&gt;&lt;b style=&quot;background-color: initial;&quot;&gt;WestSide&lt;/b&gt;&lt;br&gt;&lt;/p&gt;&lt;hr size=&quot;1&quot;&gt;&lt;div&gt;-- West side of the map&lt;br&gt;&lt;/div&gt;" style="verticalAlign=top;align=left;overflow=fill;fontSize=12;fontFamily=Helvetica;html=1;whiteSpace=wrap;" vertex="1" parent="WeC_Fzpdg34F6DS3K2GO-0">
          <mxGeometry x="488" y="230.00000000000003" width="160" height="80" as="geometry" />
        </mxCell>
        <mxCell id="WeC_Fzpdg34F6DS3K2GO-46" style="edgeStyle=orthogonalEdgeStyle;rounded=0;orthogonalLoop=1;jettySize=auto;html=1;exitX=0.25;exitY=1;exitDx=0;exitDy=0;entryX=0.25;entryY=0;entryDx=0;entryDy=0;endArrow=open;endFill=0;" edge="1" parent="WeC_Fzpdg34F6DS3K2GO-0" source="WeC_Fzpdg34F6DS3K2GO-13" target="WeC_Fzpdg34F6DS3K2GO-19">
          <mxGeometry relative="1" as="geometry" />
        </mxCell>
        <mxCell id="WeC_Fzpdg34F6DS3K2GO-48" style="edgeStyle=orthogonalEdgeStyle;rounded=0;orthogonalLoop=1;jettySize=auto;html=1;exitX=0.25;exitY=1;exitDx=0;exitDy=0;entryX=0;entryY=0.5;entryDx=0;entryDy=0;endArrow=open;endFill=0;" edge="1" parent="WeC_Fzpdg34F6DS3K2GO-0" source="WeC_Fzpdg34F6DS3K2GO-13" target="WeC_Fzpdg34F6DS3K2GO-22">
          <mxGeometry relative="1" as="geometry">
            <Array as="points">
              <mxPoint x="78" y="450" />
              <mxPoint x="28" y="450" />
              <mxPoint x="28" y="600" />
            </Array>
          </mxGeometry>
        </mxCell>
        <mxCell id="WeC_Fzpdg34F6DS3K2GO-13" value="&lt;p style=&quot;margin:0px;margin-top:4px;text-align:center;&quot;&gt;&lt;b&gt;Water&lt;/b&gt;&lt;br&gt;&lt;/p&gt;&lt;hr size=&quot;1&quot;&gt;&lt;div&gt;-- Puddle of Water class&lt;br&gt;&lt;/div&gt;" style="verticalAlign=top;align=left;overflow=fill;fontSize=12;fontFamily=Helvetica;html=1;whiteSpace=wrap;" vertex="1" parent="WeC_Fzpdg34F6DS3K2GO-0">
          <mxGeometry x="38" y="365.00347826086954" width="160" height="60" as="geometry" />
        </mxCell>
        <mxCell id="WeC_Fzpdg34F6DS3K2GO-51" style="edgeStyle=orthogonalEdgeStyle;rounded=0;orthogonalLoop=1;jettySize=auto;html=1;exitX=0.25;exitY=1;exitDx=0;exitDy=0;entryX=0.25;entryY=0;entryDx=0;entryDy=0;endArrow=open;endFill=0;" edge="1" parent="WeC_Fzpdg34F6DS3K2GO-0" source="WeC_Fzpdg34F6DS3K2GO-14" target="WeC_Fzpdg34F6DS3K2GO-20">
          <mxGeometry relative="1" as="geometry" />
        </mxCell>
        <mxCell id="WeC_Fzpdg34F6DS3K2GO-52" style="edgeStyle=orthogonalEdgeStyle;rounded=0;orthogonalLoop=1;jettySize=auto;html=1;exitX=0.25;exitY=1;exitDx=0;exitDy=0;entryX=0;entryY=0.5;entryDx=0;entryDy=0;endArrow=open;endFill=0;" edge="1" parent="WeC_Fzpdg34F6DS3K2GO-0" source="WeC_Fzpdg34F6DS3K2GO-14" target="WeC_Fzpdg34F6DS3K2GO-23">
          <mxGeometry relative="1" as="geometry">
            <Array as="points">
              <mxPoint x="438" y="440" />
              <mxPoint x="378" y="440" />
              <mxPoint x="378" y="600" />
            </Array>
          </mxGeometry>
        </mxCell>
        <mxCell id="WeC_Fzpdg34F6DS3K2GO-14" value="&lt;p style=&quot;margin:0px;margin-top:4px;text-align:center;&quot;&gt;&lt;b&gt;Wind&lt;/b&gt;&lt;br&gt;&lt;/p&gt;&lt;hr size=&quot;1&quot;&gt;&lt;div&gt;-- Gust of Wind environment class&lt;br&gt;&lt;/div&gt;" style="verticalAlign=top;align=left;overflow=fill;fontSize=12;fontFamily=Helvetica;html=1;whiteSpace=wrap;" vertex="1" parent="WeC_Fzpdg34F6DS3K2GO-0">
          <mxGeometry x="398" y="365.00347826086954" width="160" height="60" as="geometry" />
        </mxCell>
        <mxCell id="WeC_Fzpdg34F6DS3K2GO-49" style="edgeStyle=orthogonalEdgeStyle;rounded=0;orthogonalLoop=1;jettySize=auto;html=1;exitX=0.25;exitY=1;exitDx=0;exitDy=0;entryX=0.25;entryY=0;entryDx=0;entryDy=0;endArrow=open;endFill=0;" edge="1" parent="WeC_Fzpdg34F6DS3K2GO-0" source="WeC_Fzpdg34F6DS3K2GO-15" target="WeC_Fzpdg34F6DS3K2GO-21">
          <mxGeometry relative="1" as="geometry" />
        </mxCell>
        <mxCell id="WeC_Fzpdg34F6DS3K2GO-50" style="edgeStyle=orthogonalEdgeStyle;rounded=0;orthogonalLoop=1;jettySize=auto;html=1;exitX=0.25;exitY=1;exitDx=0;exitDy=0;entryX=0;entryY=0.5;entryDx=0;entryDy=0;endArrow=open;endFill=0;" edge="1" parent="WeC_Fzpdg34F6DS3K2GO-0" source="WeC_Fzpdg34F6DS3K2GO-15" target="WeC_Fzpdg34F6DS3K2GO-24">
          <mxGeometry relative="1" as="geometry">
            <Array as="points">
              <mxPoint x="256" y="440" />
              <mxPoint x="208" y="440" />
              <mxPoint x="208" y="600" />
            </Array>
          </mxGeometry>
        </mxCell>
        <mxCell id="WeC_Fzpdg34F6DS3K2GO-15" value="&lt;p style=&quot;margin:0px;margin-top:4px;text-align:center;&quot;&gt;&lt;b&gt;Graveyard&lt;/b&gt;&lt;br&gt;&lt;/p&gt;&lt;hr size=&quot;1&quot;&gt;&lt;div&gt;-- Graveyard environment class&lt;br&gt;&lt;/div&gt;" style="verticalAlign=top;align=left;overflow=fill;fontSize=12;fontFamily=Helvetica;html=1;whiteSpace=wrap;" vertex="1" parent="WeC_Fzpdg34F6DS3K2GO-0">
          <mxGeometry x="216.2" y="365.00347826086954" width="160" height="60" as="geometry" />
        </mxCell>
        <mxCell id="WeC_Fzpdg34F6DS3K2GO-25" style="edgeStyle=orthogonalEdgeStyle;rounded=0;orthogonalLoop=1;jettySize=auto;html=1;endArrow=open;endFill=0;dashed=1;" edge="1" parent="WeC_Fzpdg34F6DS3K2GO-0" source="WeC_Fzpdg34F6DS3K2GO-19" target="WeC_Fzpdg34F6DS3K2GO-8">
          <mxGeometry relative="1" as="geometry">
            <Array as="points">
              <mxPoint x="118" y="450" />
              <mxPoint x="568" y="450" />
            </Array>
          </mxGeometry>
        </mxCell>
        <mxCell id="WeC_Fzpdg34F6DS3K2GO-19" value="&lt;p style=&quot;margin:0px;margin-top:4px;text-align:center;&quot;&gt;&lt;b&gt;GiantCrab&lt;/b&gt;&lt;/p&gt;&lt;hr size=&quot;1&quot;&gt;&lt;div&gt;-- Giant crab enemy class&lt;br&gt;&lt;/div&gt;" style="verticalAlign=top;align=left;overflow=fill;fontSize=12;fontFamily=Helvetica;html=1;whiteSpace=wrap;" vertex="1" parent="WeC_Fzpdg34F6DS3K2GO-0">
          <mxGeometry x="38" y="470.00347826086954" width="160" height="60" as="geometry" />
        </mxCell>
        <mxCell id="WeC_Fzpdg34F6DS3K2GO-27" style="edgeStyle=orthogonalEdgeStyle;rounded=0;orthogonalLoop=1;jettySize=auto;html=1;endArrow=none;endFill=0;dashed=1;" edge="1" parent="WeC_Fzpdg34F6DS3K2GO-0" source="WeC_Fzpdg34F6DS3K2GO-20">
          <mxGeometry relative="1" as="geometry">
            <mxPoint x="478" y="450.00347826086954" as="targetPoint" />
          </mxGeometry>
        </mxCell>
        <mxCell id="WeC_Fzpdg34F6DS3K2GO-20" value="&lt;p style=&quot;margin:0px;margin-top:4px;text-align:center;&quot;&gt;&lt;b&gt;LoneWolf&lt;/b&gt;&lt;/p&gt;&lt;hr size=&quot;1&quot;&gt;&lt;div&gt;-- Lone Wolf enemy class&lt;br&gt;&lt;/div&gt;" style="verticalAlign=top;align=left;overflow=fill;fontSize=12;fontFamily=Helvetica;html=1;whiteSpace=wrap;" vertex="1" parent="WeC_Fzpdg34F6DS3K2GO-0">
          <mxGeometry x="398" y="470.00347826086954" width="160" height="60" as="geometry" />
        </mxCell>
        <mxCell id="WeC_Fzpdg34F6DS3K2GO-26" style="edgeStyle=orthogonalEdgeStyle;rounded=0;orthogonalLoop=1;jettySize=auto;html=1;endArrow=none;endFill=0;dashed=1;" edge="1" parent="WeC_Fzpdg34F6DS3K2GO-0" source="WeC_Fzpdg34F6DS3K2GO-21">
          <mxGeometry relative="1" as="geometry">
            <mxPoint x="296" y="450.00347826086954" as="targetPoint" />
          </mxGeometry>
        </mxCell>
        <mxCell id="WeC_Fzpdg34F6DS3K2GO-21" value="&lt;p style=&quot;margin:0px;margin-top:4px;text-align:center;&quot;&gt;&lt;b&gt;HeavySkeletalSwordsman&lt;br&gt;&lt;/b&gt;&lt;/p&gt;&lt;hr size=&quot;1&quot;&gt;&lt;div&gt;-- Heavy Skeletal Swordsman enemy class&lt;br&gt;&lt;/div&gt;" style="verticalAlign=top;align=left;overflow=fill;fontSize=12;fontFamily=Helvetica;html=1;whiteSpace=wrap;" vertex="1" parent="WeC_Fzpdg34F6DS3K2GO-0">
          <mxGeometry x="216" y="470.00347826086954" width="160" height="60" as="geometry" />
        </mxCell>
        <mxCell id="WeC_Fzpdg34F6DS3K2GO-35" style="edgeStyle=orthogonalEdgeStyle;rounded=0;orthogonalLoop=1;jettySize=auto;html=1;entryX=0.624;entryY=1.035;entryDx=0;entryDy=0;entryPerimeter=0;dashed=1;endArrow=open;endFill=0;fillColor=#dae8fc;strokeColor=#6c8ebf;" edge="1" parent="WeC_Fzpdg34F6DS3K2GO-0" source="WeC_Fzpdg34F6DS3K2GO-22" target="WeC_Fzpdg34F6DS3K2GO-7">
          <mxGeometry relative="1" as="geometry">
            <Array as="points">
              <mxPoint x="118" y="550" />
              <mxPoint x="388" y="550" />
            </Array>
          </mxGeometry>
        </mxCell>
        <mxCell id="WeC_Fzpdg34F6DS3K2GO-22" value="&lt;p style=&quot;margin:0px;margin-top:4px;text-align:center;&quot;&gt;&lt;b&gt;GiantCrayfish&lt;/b&gt;&lt;/p&gt;&lt;hr size=&quot;1&quot;&gt;&lt;div&gt;-- Giant Crayfish enemy class&lt;br&gt;&lt;/div&gt;" style="verticalAlign=top;align=left;overflow=fill;fontSize=12;fontFamily=Helvetica;html=1;whiteSpace=wrap;" vertex="1" parent="WeC_Fzpdg34F6DS3K2GO-0">
          <mxGeometry x="38" y="570.0034782608695" width="160" height="60" as="geometry" />
        </mxCell>
        <mxCell id="WeC_Fzpdg34F6DS3K2GO-36" style="edgeStyle=orthogonalEdgeStyle;rounded=0;orthogonalLoop=1;jettySize=auto;html=1;endArrow=none;endFill=0;dashed=1;fillColor=#dae8fc;strokeColor=#6c8ebf;" edge="1" parent="WeC_Fzpdg34F6DS3K2GO-0" source="WeC_Fzpdg34F6DS3K2GO-24">
          <mxGeometry relative="1" as="geometry">
            <mxPoint x="296" y="550.0034782608695" as="targetPoint" />
          </mxGeometry>
        </mxCell>
        <mxCell id="WeC_Fzpdg34F6DS3K2GO-64" style="edgeStyle=orthogonalEdgeStyle;rounded=0;orthogonalLoop=1;jettySize=auto;html=1;exitX=0.5;exitY=1;exitDx=0;exitDy=0;entryX=0;entryY=0.5;entryDx=0;entryDy=0;endArrow=open;endFill=0;" edge="1" parent="WeC_Fzpdg34F6DS3K2GO-0" source="WeC_Fzpdg34F6DS3K2GO-24" target="WeC_Fzpdg34F6DS3K2GO-54">
          <mxGeometry relative="1" as="geometry">
            <Array as="points">
              <mxPoint x="296" y="650" />
              <mxPoint x="698" y="650" />
              <mxPoint x="698" y="133" />
            </Array>
          </mxGeometry>
        </mxCell>
        <mxCell id="WeC_Fzpdg34F6DS3K2GO-68" style="edgeStyle=orthogonalEdgeStyle;rounded=0;orthogonalLoop=1;jettySize=auto;html=1;exitX=0.75;exitY=1;exitDx=0;exitDy=0;endArrow=open;endFill=0;" edge="1" parent="WeC_Fzpdg34F6DS3K2GO-0" source="WeC_Fzpdg34F6DS3K2GO-24" target="WeC_Fzpdg34F6DS3K2GO-66">
          <mxGeometry relative="1" as="geometry">
            <Array as="points">
              <mxPoint x="336" y="670" />
              <mxPoint x="988" y="670" />
            </Array>
          </mxGeometry>
        </mxCell>
        <mxCell id="WeC_Fzpdg34F6DS3K2GO-24" value="&lt;p style=&quot;margin:0px;margin-top:4px;text-align:center;&quot;&gt;&lt;b&gt;SkeletalBandit&lt;/b&gt;&lt;/p&gt;&lt;hr size=&quot;1&quot;&gt;&lt;div&gt;-- Skeletal Bandit enemy class&lt;br&gt;&lt;/div&gt;" style="verticalAlign=top;align=left;overflow=fill;fontSize=12;fontFamily=Helvetica;html=1;whiteSpace=wrap;" vertex="1" parent="WeC_Fzpdg34F6DS3K2GO-0">
          <mxGeometry x="216" y="570.0034782608695" width="160" height="60" as="geometry" />
        </mxCell>
        <mxCell id="WeC_Fzpdg34F6DS3K2GO-37" style="edgeStyle=orthogonalEdgeStyle;rounded=0;orthogonalLoop=1;jettySize=auto;html=1;exitX=0.5;exitY=0;exitDx=0;exitDy=0;endArrow=none;endFill=0;dashed=1;fillColor=#dae8fc;strokeColor=#6c8ebf;" edge="1" parent="WeC_Fzpdg34F6DS3K2GO-0" source="WeC_Fzpdg34F6DS3K2GO-23">
          <mxGeometry relative="1" as="geometry">
            <mxPoint x="388" y="550.0034782608695" as="targetPoint" />
          </mxGeometry>
        </mxCell>
        <mxCell id="WeC_Fzpdg34F6DS3K2GO-65" style="edgeStyle=orthogonalEdgeStyle;rounded=0;orthogonalLoop=1;jettySize=auto;html=1;entryX=0.5;entryY=1;entryDx=0;entryDy=0;endArrow=open;endFill=0;" edge="1" parent="WeC_Fzpdg34F6DS3K2GO-0" source="WeC_Fzpdg34F6DS3K2GO-23" target="WeC_Fzpdg34F6DS3K2GO-53">
          <mxGeometry relative="1" as="geometry" />
        </mxCell>
        <mxCell id="WeC_Fzpdg34F6DS3K2GO-23" value="&lt;p style=&quot;margin:0px;margin-top:4px;text-align:center;&quot;&gt;&lt;b&gt;GiantDog&lt;/b&gt;&lt;/p&gt;&lt;hr size=&quot;1&quot;&gt;&lt;div&gt;-- Giant God enemy class&lt;br&gt;&lt;/div&gt;" style="verticalAlign=top;align=left;overflow=fill;fontSize=12;fontFamily=Helvetica;html=1;whiteSpace=wrap;" vertex="1" parent="WeC_Fzpdg34F6DS3K2GO-0">
          <mxGeometry x="398" y="570.0034782608695" width="160" height="60" as="geometry" />
        </mxCell>
        <mxCell id="WeC_Fzpdg34F6DS3K2GO-44" value="&lt;p style=&quot;margin:0px;margin-top:4px;text-align:center;&quot;&gt;&lt;b&gt;AttackAction&lt;br&gt;&lt;/b&gt;&lt;/p&gt;&lt;hr size=&quot;1&quot;&gt;" style="verticalAlign=top;align=left;overflow=fill;fontSize=12;fontFamily=Helvetica;html=1;whiteSpace=wrap;" vertex="1" parent="WeC_Fzpdg34F6DS3K2GO-0">
          <mxGeometry x="998" y="90.00347826086957" width="140" height="60" as="geometry" />
        </mxCell>
        <mxCell id="WeC_Fzpdg34F6DS3K2GO-56" style="edgeStyle=orthogonalEdgeStyle;rounded=0;orthogonalLoop=1;jettySize=auto;html=1;entryX=0.5;entryY=1;entryDx=0;entryDy=0;endArrow=block;endFill=0;" edge="1" parent="WeC_Fzpdg34F6DS3K2GO-0" source="WeC_Fzpdg34F6DS3K2GO-53" target="WeC_Fzpdg34F6DS3K2GO-44">
          <mxGeometry relative="1" as="geometry" />
        </mxCell>
        <mxCell id="WeC_Fzpdg34F6DS3K2GO-53" value="&lt;p style=&quot;margin:0px;margin-top:4px;text-align:center;&quot;&gt;&lt;b&gt;SlamAttack&lt;/b&gt;&lt;br&gt;&lt;/p&gt;&lt;hr size=&quot;1&quot;&gt;-- Giant Crab and Giant Dog enemy special attack class" style="verticalAlign=top;align=left;overflow=fill;fontSize=12;fontFamily=Helvetica;html=1;whiteSpace=wrap;" vertex="1" parent="WeC_Fzpdg34F6DS3K2GO-0">
          <mxGeometry x="1038" y="309.00347826086954" width="160" height="85.13" as="geometry" />
        </mxCell>
        <mxCell id="WeC_Fzpdg34F6DS3K2GO-59" style="edgeStyle=orthogonalEdgeStyle;rounded=0;orthogonalLoop=1;jettySize=auto;html=1;exitX=0.5;exitY=1;exitDx=0;exitDy=0;endArrow=open;endFill=0;" edge="1" parent="WeC_Fzpdg34F6DS3K2GO-0" source="WeC_Fzpdg34F6DS3K2GO-54" target="WeC_Fzpdg34F6DS3K2GO-57">
          <mxGeometry relative="1" as="geometry" />
        </mxCell>
        <mxCell id="WeC_Fzpdg34F6DS3K2GO-54" value="&lt;p style=&quot;margin:0px;margin-top:4px;text-align:center;&quot;&gt;&lt;b&gt;Scimitar&lt;/b&gt;&lt;/p&gt;&lt;hr size=&quot;1&quot;&gt;&lt;div&gt;-- Scimitar weapon class&lt;br&gt;&lt;/div&gt;" style="verticalAlign=top;align=left;overflow=fill;fontSize=12;fontFamily=Helvetica;html=1;whiteSpace=wrap;" vertex="1" parent="WeC_Fzpdg34F6DS3K2GO-0">
          <mxGeometry x="759.66" y="90.00347826086957" width="160" height="85.26" as="geometry" />
        </mxCell>
        <mxCell id="WeC_Fzpdg34F6DS3K2GO-60" style="edgeStyle=orthogonalEdgeStyle;rounded=0;orthogonalLoop=1;jettySize=auto;html=1;exitX=0.75;exitY=0;exitDx=0;exitDy=0;endArrow=none;endFill=0;" edge="1" parent="WeC_Fzpdg34F6DS3K2GO-0" source="WeC_Fzpdg34F6DS3K2GO-57">
          <mxGeometry relative="1" as="geometry">
            <mxPoint x="1068.0000000000002" y="230.00347826086957" as="targetPoint" />
            <Array as="points">
              <mxPoint x="880" y="230" />
            </Array>
          </mxGeometry>
        </mxCell>
        <mxCell id="WeC_Fzpdg34F6DS3K2GO-57" value="&lt;p style=&quot;margin:0px;margin-top:4px;text-align:center;&quot;&gt;&lt;b&gt;ScimitarAttack&lt;/b&gt;&lt;br&gt;&lt;/p&gt;&lt;hr size=&quot;1&quot;&gt;-- Scimitar special attack class" style="verticalAlign=top;align=left;overflow=fill;fontSize=12;fontFamily=Helvetica;html=1;whiteSpace=wrap;" vertex="1" parent="WeC_Fzpdg34F6DS3K2GO-0">
          <mxGeometry x="759.66" y="309.00347826086954" width="160" height="85.13" as="geometry" />
        </mxCell>
        <mxCell id="WeC_Fzpdg34F6DS3K2GO-66" value="&lt;p style=&quot;margin:0px;margin-top:4px;text-align:center;&quot;&gt;&lt;b&gt;PileOfBones&lt;/b&gt;&lt;br&gt;&lt;/p&gt;&lt;hr size=&quot;1&quot;&gt;-- Heavy Skeletal Swordsman and Skeletal Bandit enemy special skill class" style="verticalAlign=top;align=left;overflow=fill;fontSize=12;fontFamily=Helvetica;html=1;whiteSpace=wrap;" vertex="1" parent="WeC_Fzpdg34F6DS3K2GO-0">
          <mxGeometry x="908" y="444.8734782608696" width="160" height="85.13" as="geometry" />
        </mxCell>
        <mxCell id="-BQ047IAaA30-ouGBMNb-9" style="edgeStyle=orthogonalEdgeStyle;rounded=0;orthogonalLoop=1;jettySize=auto;html=1;entryX=0.5;entryY=1;entryDx=0;entryDy=0;endArrow=block;endFill=0;" parent="WIyWlLk6GJQsqaUBKTNV-1" source="-BQ047IAaA30-ouGBMNb-8" target="-BQ047IAaA30-ouGBMNb-6" edge="1">
          <mxGeometry relative="1" as="geometry" />
        </mxCell>
        <mxCell id="WeC_Fzpdg34F6DS3K2GO-2" style="edgeStyle=orthogonalEdgeStyle;rounded=0;orthogonalLoop=1;jettySize=auto;html=1;endArrow=open;endFill=0;" edge="1" parent="WIyWlLk6GJQsqaUBKTNV-1" source="-BQ047IAaA30-ouGBMNb-8" target="WeC_Fzpdg34F6DS3K2GO-1">
          <mxGeometry relative="1" as="geometry">
            <Array as="points">
              <mxPoint x="270" y="320" />
              <mxPoint x="270" y="320" />
            </Array>
          </mxGeometry>
        </mxCell>
        <mxCell id="-BQ047IAaA30-ouGBMNb-8" value="&lt;p style=&quot;margin:0px;margin-top:4px;text-align:center;&quot;&gt;&lt;b&gt;&amp;lt;&amp;lt;abstract&amp;gt;&amp;gt;&lt;/b&gt;&lt;/p&gt;&lt;p style=&quot;margin:0px;margin-top:4px;text-align:center;&quot;&gt;&lt;b&gt;GroundSpawner&lt;br&gt;&lt;/b&gt;&lt;/p&gt;&lt;hr size=&quot;1&quot;&gt;&lt;div&gt;-- base class for grounds which spawn enemies&lt;br&gt;&lt;/div&gt;" style="verticalAlign=top;align=left;overflow=fill;fontSize=12;fontFamily=Helvetica;html=1;whiteSpace=wrap;" parent="WIyWlLk6GJQsqaUBKTNV-1" vertex="1">
          <mxGeometry x="80" y="270" width="160" height="91" as="geometry" />
        </mxCell>
        <mxCell id="WeC_Fzpdg34F6DS3K2GO-16" style="edgeStyle=orthogonalEdgeStyle;rounded=0;orthogonalLoop=1;jettySize=auto;html=1;entryX=0.5;entryY=1;entryDx=0;entryDy=0;endArrow=block;endFill=0;" edge="1" parent="WIyWlLk6GJQsqaUBKTNV-1" source="WeC_Fzpdg34F6DS3K2GO-13" target="-BQ047IAaA30-ouGBMNb-8">
          <mxGeometry relative="1" as="geometry">
            <Array as="points">
              <mxPoint x="130" y="520" />
              <mxPoint x="160" y="520" />
            </Array>
          </mxGeometry>
        </mxCell>
        <mxCell id="WeC_Fzpdg34F6DS3K2GO-17" style="edgeStyle=orthogonalEdgeStyle;rounded=0;orthogonalLoop=1;jettySize=auto;html=1;endArrow=block;endFill=0;" edge="1" parent="WIyWlLk6GJQsqaUBKTNV-1" source="WeC_Fzpdg34F6DS3K2GO-15" target="-BQ047IAaA30-ouGBMNb-8">
          <mxGeometry relative="1" as="geometry">
            <Array as="points">
              <mxPoint x="240" y="520" />
              <mxPoint x="160" y="520" />
            </Array>
          </mxGeometry>
        </mxCell>
        <mxCell id="WeC_Fzpdg34F6DS3K2GO-18" style="edgeStyle=orthogonalEdgeStyle;rounded=0;orthogonalLoop=1;jettySize=auto;html=1;endArrow=block;endFill=0;" edge="1" parent="WIyWlLk6GJQsqaUBKTNV-1" source="WeC_Fzpdg34F6DS3K2GO-14" target="-BQ047IAaA30-ouGBMNb-8">
          <mxGeometry relative="1" as="geometry">
            <Array as="points">
              <mxPoint x="490" y="520" />
              <mxPoint x="160" y="520" />
            </Array>
          </mxGeometry>
        </mxCell>
        <mxCell id="WeC_Fzpdg34F6DS3K2GO-38" value="`" style="shape=folder;fontStyle=1;spacingTop=10;tabWidth=65;tabHeight=20;tabPosition=left;html=1;whiteSpace=wrap;" vertex="1" parent="WIyWlLk6GJQsqaUBKTNV-1">
          <mxGeometry x="761.66" y="65.85" width="180" height="110" as="geometry" />
        </mxCell>
        <mxCell id="WeC_Fzpdg34F6DS3K2GO-39" value="weapons&lt;span style=&quot;white-space: pre;&quot;&gt; &lt;/span&gt;" style="text;html=1;strokeColor=none;fillColor=none;align=center;verticalAlign=middle;whiteSpace=wrap;rounded=0;" vertex="1" parent="WIyWlLk6GJQsqaUBKTNV-1">
          <mxGeometry x="760" y="55.85000000000002" width="60" height="44.21052631578947" as="geometry" />
        </mxCell>
        <mxCell id="WeC_Fzpdg34F6DS3K2GO-40" value="&lt;p style=&quot;margin:0px;margin-top:4px;text-align:center;&quot;&gt;&lt;b&gt;&amp;lt;&amp;lt;abstract&amp;gt;&amp;gt;&lt;/b&gt;&lt;/p&gt;&lt;p style=&quot;margin:0px;margin-top:4px;text-align:center;&quot;&gt;&lt;b&gt;WeaponItem&lt;/b&gt;&lt;br&gt;&lt;/p&gt;&lt;hr size=&quot;1&quot;&gt;" style="verticalAlign=top;align=left;overflow=fill;fontSize=12;fontFamily=Helvetica;html=1;whiteSpace=wrap;" vertex="1" parent="WIyWlLk6GJQsqaUBKTNV-1">
          <mxGeometry x="781.66" y="108.13" width="140" height="56" as="geometry" />
        </mxCell>
        <mxCell id="WeC_Fzpdg34F6DS3K2GO-41" value="" style="shape=folder;fontStyle=1;spacingTop=10;tabWidth=65;tabHeight=20;tabPosition=left;html=1;whiteSpace=wrap;" vertex="1" parent="WIyWlLk6GJQsqaUBKTNV-1">
          <mxGeometry x="990" y="65.85" width="180" height="110" as="geometry" />
        </mxCell>
        <mxCell id="WeC_Fzpdg34F6DS3K2GO-42" value="&lt;p style=&quot;margin:0px;margin-top:4px;text-align:center;&quot;&gt;&lt;b&gt;&amp;lt;&amp;lt;abstract&amp;gt;&amp;gt;&lt;/b&gt;&lt;/p&gt;&lt;p style=&quot;margin:0px;margin-top:4px;text-align:center;&quot;&gt;&lt;b&gt;Action&lt;br&gt;&lt;/b&gt;&lt;/p&gt;&lt;hr size=&quot;1&quot;&gt;" style="verticalAlign=top;align=left;overflow=fill;fontSize=12;fontFamily=Helvetica;html=1;whiteSpace=wrap;" vertex="1" parent="WIyWlLk6GJQsqaUBKTNV-1">
          <mxGeometry x="1010" y="104.12999999999994" width="140" height="60" as="geometry" />
        </mxCell>
        <mxCell id="WeC_Fzpdg34F6DS3K2GO-43" value="actions" style="text;html=1;strokeColor=none;fillColor=none;align=center;verticalAlign=middle;whiteSpace=wrap;rounded=0;" vertex="1" parent="WIyWlLk6GJQsqaUBKTNV-1">
          <mxGeometry x="990" y="60.81999999999999" width="60" height="30" as="geometry" />
        </mxCell>
        <mxCell id="WeC_Fzpdg34F6DS3K2GO-45" style="edgeStyle=orthogonalEdgeStyle;rounded=0;orthogonalLoop=1;jettySize=auto;html=1;entryX=0.5;entryY=1;entryDx=0;entryDy=0;endArrow=block;endFill=0;" edge="1" parent="WIyWlLk6GJQsqaUBKTNV-1" source="WeC_Fzpdg34F6DS3K2GO-44" target="WeC_Fzpdg34F6DS3K2GO-42">
          <mxGeometry relative="1" as="geometry" />
        </mxCell>
        <mxCell id="WeC_Fzpdg34F6DS3K2GO-55" style="edgeStyle=orthogonalEdgeStyle;rounded=0;orthogonalLoop=1;jettySize=auto;html=1;entryX=0.5;entryY=1;entryDx=0;entryDy=0;endArrow=block;endFill=0;" edge="1" parent="WIyWlLk6GJQsqaUBKTNV-1" source="WeC_Fzpdg34F6DS3K2GO-54" target="WeC_Fzpdg34F6DS3K2GO-40">
          <mxGeometry relative="1" as="geometry" />
        </mxCell>
        <mxCell id="-BQ047IAaA30-ouGBMNb-11" value="&lt;div&gt;game&lt;br&gt;&lt;/div&gt;" style="text;html=1;strokeColor=none;fillColor=none;align=center;verticalAlign=middle;whiteSpace=wrap;rounded=0;" parent="WIyWlLk6GJQsqaUBKTNV-1" vertex="1">
          <mxGeometry x="-80" y="189.99652173913043" width="86.34146341463415" height="65.4" as="geometry" />
        </mxCell>
        <mxCell id="WeC_Fzpdg34F6DS3K2GO-67" style="edgeStyle=orthogonalEdgeStyle;rounded=0;orthogonalLoop=1;jettySize=auto;html=1;entryX=0.25;entryY=1;entryDx=0;entryDy=0;endArrow=block;endFill=0;" edge="1" parent="WIyWlLk6GJQsqaUBKTNV-1" source="WeC_Fzpdg34F6DS3K2GO-66" target="WeC_Fzpdg34F6DS3K2GO-42">
          <mxGeometry relative="1" as="geometry">
            <Array as="points">
              <mxPoint x="1000" y="210" />
              <mxPoint x="1045" y="210" />
            </Array>
          </mxGeometry>
        </mxCell>
      </root>
    </mxGraphModel>
  </diagram>
</mxfile>
